<svg xmlns="http://www.w3.org/2000/svg" width="0" height="0">
  <symbol viewBox="0 0 448 512" id="db">
    <path fill="#CCC" d="M448 80v48c0 44.2-100.3 80-224 80S0 172.2 0 128V80C0 35.8 100.3 0 224 0S448 35.8 448 80zM393.2 214.7c20.8-7.4 39.9-16.9 54.8-28.6V288c0 44.2-100.3 80-224 80S0 332.2 0 288V186.1c14.9 11.8 34 21.2 54.8 28.6C99.7 230.7 159.5 240 224 240s124.3-9.3 169.2-25.3zM0 346.1c14.9 11.8 34 21.2 54.8 28.6C99.7 390.7 159.5 400 224 400s124.3-9.3 169.2-25.3c20.8-7.4 39.9-16.9 54.8-28.6V432c0 44.2-100.3 80-224 80S0 476.2 0 432V346.1z"/>
  </symbol>
  <symbol viewBox="0 0 512 512" id="wallet">
    <path fill="#CCC" d="M64 32C28.7 32 0 60.7 0 96V416c0 35.3 28.7 64 64 64H448c35.3 0 64-28.7 64-64V192c0-35.3-28.7-64-64-64H80c-8.8 0-16-7.2-16-16s7.2-16 16-16H448c17.7 0 32-14.3 32-32s-14.3-32-32-32H64zM416 336c-17.7 0-32-14.3-32-32s14.3-32 32-32s32 14.3 32 32s-14.3 32-32 32z"/>
  </symbol>
  <symbol viewBox="0 0 576 512" id="work">
    <path fill="#CCC" d="M304 64c0 26.5-21.5 48-48 48s-48-21.5-48-48s21.5-48 48-48s48 21.5 48 48zM9.8 214.8c5.1-12.2 19.1-18 31.4-12.9L60.7 210l22.9-38.1C99.9 144.6 129.3 128 161 128c51.4 0 97 32.9 113.3 81.7l34.6 103.7 79.3 33.1 34.2-45.6c6.4-8.5 16.6-13.3 27.2-12.8s20.3 6.4 25.8 15.5l96 160c5.9 9.9 6.1 22.2 .4 32.2s-16.3 16.2-27.8 16.2H288c-11.1 0-21.4-5.7-27.2-15.2s-6.4-21.2-1.4-31.1l16-32c5.4-10.8 16.5-17.7 28.6-17.7h32l22.5-30L22.8 246.2c-12.2-5.1-18-19.1-12.9-31.4zm82.8 91.8l112 48c11.8 5 19.4 16.6 19.4 29.4v96c0 17.7-14.3 32-32 32s-32-14.3-32-32V405.1l-60.6-26-37 111c-5.6 16.8-23.7 25.8-40.5 20.2S-3.9 486.6 1.6 469.9l48-144 11-33 32 13.7z"/>
  </symbol>
  <symbol viewBox="0 0 24 24" id="api">
    <path fill="#CCC" d="M7 7H5A2 2 0 0 0 3 9V17H5V13H7V17H9V9A2 2 0 0 0 7 7M7 11H5V9H7M14 7H10V17H12V13H14A2 2 0 0 0 16 11V9A2 2 0 0 0 14 7M14 11H12V9H14M20 9V15H21V17H17V15H18V9H17V7H21V9Z" />
  </symbol>
  <symbol viewBox="0 0 512 512" id="demo">
    <path fill="#CCC" d="M342.6 9.4c-12.5-12.5-32.8-12.5-45.3 0s-12.5 32.8 0 45.3l9.4 9.4L28.1 342.6C10.1 360.6 0 385 0 410.5V416c0 53 43 96 96 96h5.5c25.5 0 49.9-10.1 67.9-28.1L448 205.3l9.4 9.4c12.5 12.5 32.8 12.5 45.3 0s12.5-32.8 0-45.3l-32-32-96-96-32-32zM205.3 256L352 109.3 402.7 160l-96 96H205.3z"/>
  </symbol>
</svg>
